SplineFontDB: 3.0
FontName: ListingOne
FullName: Listing One
FamilyName: ListingOne
Weight: Regular
Copyright: Copyright (c) 2016, chris
UComments: "2016-11-22: Created with FontForge (http://fontforge.org)"
Version: 001.000
ItalicAngle: 0
UnderlinePosition: -12
UnderlineWidth: 4
Ascent: 104
Descent: 24
InvalidEm: 0
LayerCount: 2
Layer: 0 0 "Back" 1
Layer: 1 0 "Fore" 0
XUID: [1021 226 -69582396 20756]
StyleMap: 0x0000
FSType: 0
OS2Version: 0
OS2_WeightWidthSlopeOnly: 0
OS2_UseTypoMetrics: 1
CreationTime: 1479806616
ModificationTime: 1479898906
OS2TypoAscent: 0
OS2TypoAOffset: 1
OS2TypoDescent: 0
OS2TypoDOffset: 1
OS2TypoLinegap: 12
OS2WinAscent: 0
OS2WinAOffset: 1
OS2WinDescent: 0
OS2WinDOffset: 1
HheadAscent: 0
HheadAOffset: 1
HheadDescent: 0
HheadDOffset: 1
OS2Vendor: 'PfEd'
Lookup: 4 0 1 "'rlig' Required Ligatures in Latin lookup 0" { "'rlig' Required Ligatures in Latin lookup 0-1"  } ['rlig' ('DFLT' <'dflt' > 'latn' <'dflt' > ) ]
MarkAttachClasses: 1
DEI: 91125
Encoding: UnicodeBmp
UnicodeInterp: none
NameList: AGL For New Fonts
DisplaySize: -128
AntiAlias: 1
FitToEm: 0
WinInfo: 52 13 6
BeginPrivate: 0
EndPrivate
Grid
32 46 m 1
 64 46 l 1
 64 0 l 1
 32 0 l 1
 32 46 l 1
0 92 m 1
 32 92 l 1
 32 46 l 1
 0 46 l 1
 0 92 l 1
0 68 m 1
 0 92 l 1
 64 92 l 1
 64 68 l 1
 0 68 l 1
26 92 m 5
 38 92 l 5
 38 0 l 1
 26 0 l 1
 26 92 l 5
12 64 m 1
 52 64 l 1
 52 4 l 1
 12 4 l 1
 12 64 l 1
0 68 m 1
 64 68 l 1
 64 0 l 1
 0 0 l 1
 0 68 l 1
EndSplineSet
BeginChars: 65538 67

StartChar: n
Encoding: 110 110 0
Width: 76
VWidth: 0
Flags: HW
HStem: 64 4<23.4014 45.8194>
VStem: 52 12<0 54>
LayerCount: 2
Fore
SplineSet
36 68 m 7
 25 68 12 62 12 62 c 4
 12 68 l 4
 0 68 l 4
 0 0 l 4
 12 0 l 4
 12 54 l 6
 12 54 14 58 18 60 c 4
 20 61 26 64 32 64 c 4
 38 64 41 64 46 62 c 4
 52 60 52 54 52 54 c 6
 52 0 l 4
 64 0 l 4
 64 0 64 32 64 52 c 4
 64 64 47 68 36 68 c 7
EndSplineSet
EndChar

StartChar: o
Encoding: 111 111 1
Width: 76
VWidth: 0
Flags: HW
HStem: -1 4<20.9855 43.0145> 65 4<20.9855 43.0145>
VStem: 0 12<9.32178 58.6782> 52 12<9.32178 58.6782>
LayerCount: 2
Fore
SplineSet
32 69 m 0
 46 69 64 65 64 51 c 0
 64 37 64 31 64 17 c 0
 64 3 46 -1 32 -1 c 0
 18 -1 0 3 0 17 c 0
 0 31 0 37 0 51 c 0
 0 65 18 69 32 69 c 0
32 65 m 0
 22 65 12 61 12 51 c 0
 12 37 12 31 12 17 c 0
 12 7 22 3 32 3 c 0
 42 3 52 7 52 17 c 0
 52 31 52 37 52 51 c 0
 52 61 42 65 32 65 c 0
EndSplineSet
EndChar

StartChar: dotlessi
Encoding: 305 305 3
Width: 64
VWidth: 0
Flags: HW
HStem: 0 21G<26 38> 64 4<12 26>
VStem: 26 12<0 64>
LayerCount: 2
Fore
SplineSet
12 68 m 5
 38 68 l 5
 38 0 l 5
 26 0 l 5
 26 64 l 4
 12 64 l 4
 12 68 l 5
EndSplineSet
EndChar

StartChar: p
Encoding: 112 112 4
Width: 76
VWidth: 0
Flags: HW
HStem: -24 21G<0 12> -1 4<20.9355 43.0145> 48 20G<0 12> 65 4<20.9178 43.0145>
VStem: 0 12<-24 2 9.32178 58.6782 66 68> 52 12<9.32178 58.6782>
LayerCount: 2
Fore
SplineSet
32 69 m 0xdc
 46 69 64 65 64 51 c 0
 64 37 64 31 64 17 c 0
 64 3 46 -1 32 -1 c 0
 25 -1 18 0 12 2 c 2
 12 -24 l 1
 0 -24 l 1
 0 18 l 1
 0 50 l 1
 0 68 l 1
 12 68 l 1xec
 12 66 l 2
 12 66 25 69 32 69 c 0xdc
12 51 m 2
 12 17 l 2
 12 7 22 3 32 3 c 0
 42 3 52 7 52 17 c 0
 52 31 52 37 52 51 c 0
 52 61 42 65 32 65 c 0xdc
 22 65 12 61 12 51 c 2
EndSplineSet
EndChar

StartChar: q
Encoding: 113 113 5
Width: 76
VWidth: 0
Flags: HW
HStem: -1 4<20.9855 43.0645> 65 4<20.9855 43.0822>
VStem: 0 12<9.32178 17 51 58.6782> 52 12<9.32178 18 51 58.6782>
LayerCount: 2
Fore
SplineSet
32 69 m 4
 18 69 0 65 0 51 c 4
 0 37 0 31 0 17 c 4
 0 3 18 -1 32 -1 c 4
 39 -1 46 0 52 2 c 6
 52 -24 l 5
 64 -24 l 5
 64 18 l 5
 64 50 l 5
 64 68 l 5
 52 68 l 5
 52 66 l 6
 52 66 39 69 32 69 c 4
52 51 m 6
 52 17 l 6
 52 7 42 3 32 3 c 4
 22 3 12 7 12 17 c 4
 12 31 12 37 12 51 c 4
 12 61 22 65 32 65 c 4
 42 65 52 61 52 51 c 6
EndSplineSet
EndChar

StartChar: d
Encoding: 100 100 6
Width: 76
VWidth: 0
Flags: HW
HStem: -1 4<20.9855 43.0645> 0 21G<52 64> 64 4<20.9855 43.0645>
VStem: 0 12<9.32178 57.6782> 52 12<0 2 9.32178 57.6782 65 92>
LayerCount: 2
Fore
SplineSet
32 -1 m 0xb8
 18 -1 0 3 0 17 c 0
 0 31 0 36 0 50 c 0
 0 64 18 68 32 68 c 0
 39 68 46 67 52 65 c 2
 52 92 l 1
 64 92 l 1
 64 50 l 1
 64 17 l 1
 64 0 l 1
 52 0 l 1x78
 52 2 l 2
 46 0 39 -1 32 -1 c 0xb8
52 17 m 2
 52 50 l 2
 52 60 42 64 32 64 c 0
 22 64 12 60 12 50 c 0
 12 36 12 31 12 17 c 0
 12 7 22 3 32 3 c 0xb8
 42 3 52 7 52 17 c 2
EndSplineSet
EndChar

StartChar: b
Encoding: 98 98 7
Width: 76
VWidth: 0
Flags: HW
HStem: -1 4<20.9178 43.0145> 64 4<20.9355 43.0145>
VStem: 0 12<9.32178 18 50 57.6782> 52 12<9.32178 17 50 57.6782>
LayerCount: 2
Fore
SplineSet
32 -1 m 0
 46 -1 64 3 64 17 c 0
 64 31 64 36 64 50 c 0
 64 64 46 68 32 68 c 0
 25 68 18 67 12 65 c 2
 12 92 l 1
 0 92 l 1
 0 50 l 1
 0 18 l 1
 0 0 l 1
 12 0 l 1
 12 2 l 2
 12 2 25 -1 32 -1 c 0
12 17 m 2
 12 50 l 2
 12 60 22 64 32 64 c 0
 42 64 52 60 52 50 c 0
 52 36 52 31 52 17 c 0
 52 7 42 3 32 3 c 0
 22 3 12 7 12 17 c 2
EndSplineSet
EndChar

StartChar: a
Encoding: 97 97 8
Width: 76
VWidth: 0
Flags: HW
HStem: -1 4<17.0734 41.2451> 65 4<20.9855 47.1867>
VStem: 0 12<6.97394 23.1242 51 58.6782> 52 12<9.81324 17 55 61.7505>
LayerCount: 2
Fore
SplineSet
64 17 m 1
 64 55 l 2
 64 69 46 69 32 69 c 0
 18 69 0 65 0 51 c 1
 12 51 l 1
 12 61 22 65 32 65 c 0
 42 65 52 65 52 55 c 0
 52 51 52 44 52 44 c 1
 52 44 41 39 32 36 c 0
 19 31 0 29 0 15 c 0
 0 1 18 -1 32 -1 c 0
 41 -1 46 2 52 4 c 1
 52 0 l 1
 64 0 l 1
 64 17 l 1
52 15 m 2
 52 9 41 3 31 3 c 0
 21 3 12 3 12 16 c 0
 12 28 22 27 32 31 c 2
 52 39 l 1
 52 15 l 2
EndSplineSet
EndChar

StartChar: s
Encoding: 115 115 10
Width: 76
VWidth: 0
Flags: HW
HStem: -1 4<20.9855 42.4712> 65 4<16.8133 43.0145>
VStem: 0 12<9.32178 17 48.9003 61.8193> 52 12<9.62828 24.9524 51 58.6782>
LayerCount: 2
Fore
SplineSet
0 55 m 3
 0 69 18 69 32 69 c 0
 46 69 64 65 64 51 c 0
 52 51 l 0
 52 61 42 65 32 65 c 0
 22 65 12 65 12 55 c 3
 12 47 20 44 32 40 c 0
 45 35 64 31 64 17 c 3
 64 3 46 -1 32 -1 c 0
 18 -1 0 3 0 17 c 0
 12 17 l 0
 12 7 22 3 32 3 c 0
 42 3 52 8 52 17 c 3
 52 27 42 31 32 35 c 0
 19 39 0 45 0 55 c 3
EndSplineSet
EndChar

StartChar: c
Encoding: 99 99 11
Width: 76
VWidth: 0
Flags: HW
HStem: -1 4<20.9855 43.0145> 65 4<20.9855 43.0145>
VStem: 0 12<9.32178 58.6782> 52 12<9.32178 17 51 58.6782>
LayerCount: 2
Fore
SplineSet
64 17 m 0
 64 3 46 -1 32 -1 c 0
 18 -1 0 3 0 17 c 0
 0 31 0 37 0 51 c 0
 0 65 18 69 32 69 c 0
 46 69 64 65 64 51 c 0
 52 51 l 0
 52 61 42 65 32 65 c 0
 22 65 12 61 12 51 c 0
 12 37 12 31 12 17 c 0
 12 7 22 3 32 3 c 0
 42 3 52 7 52 17 c 0
 64 17 l 0
EndSplineSet
EndChar

StartChar: e
Encoding: 101 101 12
Width: 76
VWidth: 0
Flags: HW
HStem: -1 4<20.9855 43.0145> 36 4<12 52> 65 4<20.9855 43.0145>
VStem: 0 12<9.32178 36 40 58.6782> 52 12<9.32178 17 40 58.6782>
LayerCount: 2
Fore
SplineSet
64 17 m 1
 64 3 46 -1 32 -1 c 0
 18 -1 0 3 0 17 c 0
 0 31 0 37 0 51 c 0
 0 65 18 69 32 69 c 0
 46 69 64 65 64 51 c 2
 64 40 l 1
 64 36 l 1
 12 36 l 1
 12 17 l 2
 12 7 22 3 32 3 c 0
 42 3 52 7 52 17 c 1
 64 17 l 1
12 40 m 1
 52 40 l 1
 52 51 l 2
 52 61 42 65 32 65 c 0
 22 65 12 61 12 51 c 2
 12 40 l 1
EndSplineSet
EndChar

StartChar: h
Encoding: 104 104 13
Width: 76
VWidth: 0
Flags: HW
HStem: 64 4<21.0002 43.0145>
VStem: 0 12<50 57.3626> 52 12<50 57.6782>
LayerCount: 2
Fore
SplineSet
12 50 m 2
 12 60 22 64 32 64 c 0
 42 64 52 60 52 50 c 0
 52 36 52 14 52 0 c 0
 64 0 l 0
 64 14 64 36 64 50 c 0
 64 64 46 68 32 68 c 0
 25 68 18 67 12 65 c 2
 12 92 l 1
 0 92 l 1
 0 50 l 1
 0 18 l 1
 0 0 l 1
 12 0 l 1
 12 50 l 2
EndSplineSet
EndChar

StartChar: v
Encoding: 118 118 14
Width: 76
VWidth: 0
Flags: HW
HStem: 0 21G<22.5882 44.2353> 48 20G<0 20.2857 51.7857 64>
LayerCount: 2
Fore
SplineSet
0 68 m 1
 11 68 l 1
 37 12 l 5
 60 68 l 1
 64 68 l 1
 36 0 l 5
 32 0 l 5
 0 68 l 1
EndSplineSet
EndChar

StartChar: l
Encoding: 108 108 15
Width: 76
VWidth: 0
Flags: HW
HStem: 0 4<40.9816 54> 100 4<13 27>
VStem: 27 12<5.41699 100>
LayerCount: 2
Fore
SplineSet
27 12 m 3
 27 49 27 88 27 88 c 5
 13 88 l 5
 13 92 l 5
 39 92 l 5
 39 92 39 50 39 12 c 3
 39 7 42 4 45 4 c 3
 51 4 54 4 54 4 c 1
 54 0 l 1
 54 0 46 0 39 0 c 3
 31 0 27 4 27 12 c 3
EndSplineSet
EndChar

StartChar: u
Encoding: 117 117 16
Width: 76
VWidth: 0
Flags: HW
HStem: 0 4<18.1806 40.5986>
VStem: 0 12<14 68>
LayerCount: 2
Fore
SplineSet
28 0 m 3
 39 0 52 6 52 6 c 0
 52 0 l 0
 64 0 l 0
 64 68 l 0
 52 68 l 0
 52 14 l 2
 52 14 50 10 46 8 c 0
 44 7 38 4 32 4 c 0
 26 4 23 4 18 6 c 0
 12 8 12 14 12 14 c 2
 12 68 l 0
 0 68 l 0
 0 68 0 36 0 16 c 0
 0 4 17 0 28 0 c 3
EndSplineSet
EndChar

StartChar: t
Encoding: 116 116 17
Width: 76
VWidth: 0
Flags: HW
HStem: 0 21G<26 38> 64 4<12 52> 88 4<41.4053 50.2812>
VStem: 26 12<0 84.3134> 52 12<78 87.1334>
LayerCount: 2
Fore
SplineSet
26 68 m 1
 12 68 l 1
 12 64 l 1
 26 64 l 1
 26 18 l 2
 26 4 37 0 45 0 c 0
 54 0 64 0 64 14 c 1
 52 14 l 1
 52 3 48 4 45 4 c 0
 42 4 38 8 38 18 c 2
 38 64 l 1
 52 64 l 1
 52 68 l 1
 38 68 l 1
 38 92 l 1
 26 92 l 1
 26 68 l 1
EndSplineSet
EndChar

StartChar: r
Encoding: 114 114 18
Width: 76
VWidth: 0
Flags: HW
HStem: 64 4<23.4014 45.8194>
LayerCount: 2
Fore
SplineSet
36 68 m 3
 25 68 12 62 12 62 c 0
 12 68 l 0
 0 68 l 0
 0 0 l 0
 12 0 l 0
 12 54 l 2
 12 54 14 58 18 60 c 0
 20 61 26 64 32 64 c 0
 38 64 41 64 46 62 c 0
 52 60 52 54 52 54 c 2
 52 52 l 0
 64 52 l 0
 64 64 47 68 36 68 c 3
EndSplineSet
EndChar

StartChar: g
Encoding: 103 103 19
Width: 76
VWidth: 0
Flags: HW
HStem: -1 4<20.9855 43.0145> 65 4<20.9855 43.0145>
VStem: 0 12<9.32178 58.6782> 52 12<9.32178 17 51 58.6782>
LayerCount: 2
Fore
SplineSet
12 28 m 1028,16,-1
52 51 m 2,17,-1
 52 17 l 2,18,19
 52 7 42 3 32 3 c 0,20,21
 22 3 12 7 12 17 c 0,22,23
 12 31 12 37 12 51 c 0,24,25
 12 61 22 65 32 65 c 0,26,27
 42 65 52 61 52 51 c 2,17,-1
32 69 m 0,28,29
 18 69 0 65 0 51 c 0,30,31
 0 37 0 31 0 17 c 0,32,33
 0 3 18 -1 32 -1 c 0,34,35
 39 -1 46 0 52 2 c 1,36,-1
 52 -6 l 2,37,38
 52 -16 42 -20 32 -20 c 0,39,40
 22 -20 12 -16 12 -6 c 1,41,-1
 0 -6 l 1,42,43
 0 -20 18 -24 32 -24 c 0,44,45
 46 -24 64 -20 64 -6 c 2,46,-1
 64 18 l 1,47,-1
 64 28 l 1,48,-1
 64 50 l 1,49,-1
 64 68 l 1,50,-1
 52 68 l 1,51,-1
 52 66 l 1,52,53
 52 66 39 69 32 69 c 0,28,29
EndSplineSet
EndChar

StartChar: L
Encoding: 76 76 20
Width: 128
VWidth: 0
Flags: H
LayerCount: 2
Fore
SplineSet
0 92 m 1
 12 92 l 1
 12 4 l 1
 64 4 l 1
 64 0 l 1
 12 0 l 1
 0 0 l 1
 0 92 l 1
EndSplineSet
EndChar

StartChar: y
Encoding: 121 121 21
Width: 76
VWidth: 0
Flags: HW
HStem: 0 21G<26 38> 64 4<12 52> 88 4<41.4053 50.2812>
VStem: 26 12<0 84.3134> 52 12<78 87.1334>
LayerCount: 2
Fore
SplineSet
28 -19 m 2
 28 -20 25 -24 20 -24 c 3
 11 -24 1 -24 1 -10 c 1
 13 -10 l 3
 13 -19 15 -20 20 -20 c 3
 23 -20 26 -16 26 -16 c 2
 32 0 l 2
 32 0 l 1
 0 68 l 1
 11 68 l 1
 37 12 l 1
 60 68 l 1
 64 68 l 1
 28 -19 l 2
EndSplineSet
EndChar

StartChar: m
Encoding: 109 109 22
Width: 76
VWidth: 0
Flags: HW
HStem: 64 4<16.2937 25.5094 44.318 53.4417>
VStem: 56 12<0 54>
LayerCount: 2
Fore
SplineSet
22 68 m 0
 16 68 12 62 12 62 c 1
 12 68 l 1
 0 68 l 1
 0 0 l 1
 12 0 l 1
 12 54 l 1
 12 54 12 58 14 60 c 0
 15 61 18 64 20 64 c 0
 22 64 24 64 26 62 c 0
 28 60 28 54 28 54 c 1
 28 0 l 1
 40 0 l 1
 40 51 l 1
 40 54 l 1
 40 54 40 58 42 60 c 0
 43 61 46 64 48 64 c 0
 50 64 52 64 54 62 c 0
 56 60 56 54 56 54 c 1
 56 0 l 1
 68 0 l 1
 68 0 68 31 68 51 c 0
 68 63 54 68 50 68 c 0
 44 68 39 64 38 59 c 0
 38 59 l 1
 34 66 25 68 22 68 c 0
EndSplineSet
EndChar

StartChar: x
Encoding: 120 120 23
Width: 76
VWidth: 0
Flags: HW
HStem: 0 21G<0 21.7742 38.8065 64> 48 20G<0 26.8621 41.7586 64>
LayerCount: 2
Fore
SplineSet
0 68 m 1
 12 68 l 1
 33 40 l 1
 59 68 l 1
 64 68 l 1
 36 37 l 1
 64 0 l 2
 52 0 l 2
 30 31 l 1
 5 0 l 1
 0 0 l 1
 28 34 l 1
 0 68 l 1
EndSplineSet
EndChar

StartChar: z
Encoding: 122 122 24
Width: 128
VWidth: 0
Flags: HW
HStem: 0 4<15.0588 64> 64 4<0 48.9412>
LayerCount: 2
Fore
SplineSet
49 64 m 1
 0 64 l 1
 0 68 l 1
 52 68 l 1
 54 68 l 1
 64 68 l 1
 15 4 l 1
 64 4 l 1
 64 0 l 1
 12 0 l 1
 10 0 l 1
 0 0 l 1
 49 64 l 1
EndSplineSet
EndChar

StartChar: j
Encoding: 106 106 25
Width: 76
VWidth: 0
Flags: HW
HStem: 0 21G<26 38> 64 4<12 52> 88 4<41.4053 50.2812>
VStem: 26 12<0 84.3134> 52 12<78 87.1334>
LayerCount: 2
Fore
SplineSet
39 -6 m 2
 39 -20 28 -24 20 -24 c 0
 11 -24 1 -24 1 -10 c 1
 13 -10 l 1
 13 -21 17 -20 20 -20 c 0
 23 -20 27 -16 27 -6 c 2
 27 64 l 1
 13 64 l 1
 13 68 l 1
 27 68 l 1
 39 68 l 1
 39 -6 l 2
EndSplineSet
Refer: 58 46 N 1 0 0 1 1 76 2
EndChar

StartChar: f
Encoding: 102 102 26
Width: 76
VWidth: 0
Flags: HW
HStem: 0 21G<26 38> 64 4<12 52> 88 4<41.4053 50.2812>
VStem: 26 12<0 84.3134> 52 12<78 87.1334>
LayerCount: 2
Fore
SplineSet
26 64 m 1
 12 64 l 1
 12 68 l 1
 26 68 l 1
 26 74 l 2
 26 88 37 92 45 92 c 0
 54 92 64 92 64 78 c 1
 52 78 l 1
 52 89 48 88 45 88 c 0
 42 88 38 84 38 74 c 2
 38 68 l 1
 52 68 l 1
 52 64 l 1
 38 64 l 1
 38 0 l 1
 26 0 l 1
 26 64 l 1
EndSplineSet
EndChar

StartChar: uniFB01
Encoding: 64257 64257 27
Width: 152
VWidth: 0
Flags: HW
LayerCount: 2
Fore
SplineSet
38 68 m 1
 114 68 l 1
 114 0 l 1
 102 0 l 1
 102 64 l 1
 38 64 l 1
 38 0 l 1
 26 0 l 1
 26 64 l 1
 13 64 l 1
 13 68 l 1
 26 68 l 1
 26 74 l 2
 26 88 33 92 71 92 c 0
 99 92 114 92 114 78 c 1
 102 78 l 1
 102 89 91 88 71 88 c 0
 39 88 38 84 38 74 c 2
 38 68 l 1
EndSplineSet
Ligature2: "'rlig' Required Ligatures in Latin lookup 0-1" f i
EndChar

StartChar: uniFB02
Encoding: 64258 64258 28
Width: 152
VWidth: 0
Flags: H
LayerCount: 2
Fore
SplineSet
45 100 m 2
 42 100 38 96 38 86 c 2
 38 68 l 1
 52 68 l 1
 52 64 l 1
 38 64 l 1
 38 0 l 1
 26 0 l 1
 26 64 l 1
 12 64 l 1
 12 68 l 1
 26 68 l 1
 26 86 l 2
 26 100 37 104 45 104 c 2
 81 104 l 1
 81 100 l 1
 45 100 l 2
EndSplineSet
Refer: 15 108 N 1 0 0 1 68 0 2
Ligature2: "'rlig' Required Ligatures in Latin lookup 0-1" f l
EndChar

StartChar: O
Encoding: 79 79 30
Width: 76
VWidth: 0
Flags: HW
HStem: -1 4<20.9855 43.0145> 65 4<20.9855 43.0145>
VStem: 0 12<9.32178 58.6782> 52 12<9.32178 58.6782>
LayerCount: 2
Fore
SplineSet
32 93 m 0
 46 93 64 89 64 75 c 0
 64 61 64 31 64 17 c 0
 64 3 46 -1 32 -1 c 0
 18 -1 0 3 0 17 c 0
 0 31 0 61 0 75 c 0
 0 89 18 93 32 93 c 0
32 89 m 0
 22 89 12 85 12 75 c 0
 12 61 12 31 12 17 c 0
 12 7 22 3 32 3 c 0
 42 3 52 7 52 17 c 0
 52 31 52 61 52 75 c 0
 52 85 42 89 32 89 c 0
EndSplineSet
EndChar

StartChar: V
Encoding: 86 86 31
Width: 76
VWidth: 0
Flags: HW
HStem: 0 21G<22.5882 44.2353> 48 20G<0 20.2857 51.7857 64>
LayerCount: 2
Fore
SplineSet
0 92 m 1
 10 92 l 1
 37 16 l 1
 60 92 l 1
 64 92 l 1
 36 0 l 1
 32 0 l 1
 0 92 l 1
EndSplineSet
EndChar

StartChar: Y
Encoding: 89 89 32
Width: 76
VWidth: 0
Flags: HW
HStem: 0 21G<22.5882 44.2353> 48 20G<0 20.2857 51.7857 64>
LayerCount: 2
Fore
SplineSet
0 92 m 1
 11 92 l 1
 37 48 l 1
 60 92 l 1
 64 92 l 1
 39 43 l 1
 39 0 l 1
 27 0 l 1
 27 47 l 1
 0 92 l 1
EndSplineSet
EndChar

StartChar: J
Encoding: 74 74 33
Width: 76
VWidth: 0
Flags: HW
HStem: -1 4<20.9855 43.0145> 65 4<20.9855 43.0145>
VStem: 0 12<9.32178 58.6782> 52 12<9.32178 17 51 58.6782>
LayerCount: 2
Fore
SplineSet
52 92 m 4
 52 78 52 31 52 17 c 0
 52 7 42 3 32 3 c 0
 22 3 12 7 12 17 c 0
 0 17 l 0
 0 3 18 -1 32 -1 c 0
 46 -1 64 3 64 17 c 0
 64 31 64 78 64 92 c 4
 52 92 l 4
EndSplineSet
EndChar

StartChar: I
Encoding: 73 73 34
Width: 128
VWidth: 0
Flags: H
LayerCount: 2
Fore
SplineSet
12 92 m 1
 52 92 l 1
 52 88 l 1
 39 88 l 1
 39 4 l 1
 52 4 l 1
 52 0 l 1
 12 0 l 1
 12 4 l 1
 27 4 l 1
 27 88 l 1
 12 88 l 1
 12 92 l 1
EndSplineSet
EndChar

StartChar: T
Encoding: 84 84 35
Width: 128
VWidth: 0
Flags: H
LayerCount: 2
Fore
SplineSet
0 92 m 1
 64 92 l 1
 64 88 l 1
 38 88 l 1
 38 0 l 1
 26 0 l 1
 26 88 l 1
 0 88 l 1
 0 92 l 1
EndSplineSet
EndChar

StartChar: U
Encoding: 85 85 36
Width: 76
VWidth: 0
Flags: HW
HStem: -1 4<20.9855 43.0145> 65 4<20.9855 43.0145>
VStem: 0 12<9.32178 58.6782> 52 12<9.32178 17 51 58.6782>
LayerCount: 2
Fore
SplineSet
52 92 m 1
 52 78 52 31 52 17 c 0
 52 7 42 3 32 3 c 0
 22 3 12 7 12 17 c 2
 12 92 l 1
 0 92 l 1
 0 17 l 2
 0 3 18 -1 32 -1 c 0
 46 -1 64 3 64 17 c 0
 64 31 64 78 64 92 c 1
 52 92 l 1
EndSplineSet
EndChar

StartChar: zero
Encoding: 48 48 37
Width: 76
VWidth: 0
Flags: HW
HStem: -1 4<20.9855 43.0145> 65 4<20.9855 43.0145>
VStem: 0 12<9.32178 58.6782> 52 12<9.32178 58.6782>
LayerCount: 2
Fore
SplineSet
26 46 m 0
 26 50 28 52 32 52 c 0
 36 52 38 50 38 46 c 0
 38 42 36 40 32 40 c 0
 28 40 26 42 26 46 c 0
32 93 m 0
 46 93 64 89 64 75 c 0
 64 61 64 31 64 17 c 0
 64 3 46 -1 32 -1 c 0
 18 -1 0 3 0 17 c 0
 0 31 0 61 0 75 c 0
 0 89 18 93 32 93 c 0
32 89 m 0
 22 89 12 85 12 75 c 0
 12 61 12 31 12 17 c 0
 12 7 22 3 32 3 c 0
 42 3 52 7 52 17 c 0
 52 31 52 61 52 75 c 0
 52 85 42 89 32 89 c 0
EndSplineSet
EndChar

StartChar: underscore
Encoding: 95 95 38
Width: 128
VWidth: 0
Flags: H
LayerCount: 2
Fore
SplineSet
0 4 m 5
 0 0 l 1
 64 0 l 1
 64 4 l 5
 0 4 l 5
EndSplineSet
EndChar

StartChar: asterisk
Encoding: 42 42 39
Width: 128
VWidth: 0
Flags: H
LayerCount: 2
Fore
SplineSet
32 68 m 5
 37 53 l 5
 53 53 l 5
 40 43 l 5
 45 28 l 5
 32 38 l 5
 19 28 l 5
 24 43 l 5
 11 53 l 5
 27 53 l 5
 32 68 l 5
EndSplineSet
EndChar

StartChar: hyphen
Encoding: 45 45 40
Width: 128
VWidth: 0
Flags: H
LayerCount: 2
Fore
SplineSet
0 48 m 5
 64 48 l 5
 64 44 l 5
 0 44 l 5
 0 48 l 5
EndSplineSet
EndChar

StartChar: plus
Encoding: 43 43 41
Width: 128
VWidth: 0
Flags: HW
LayerCount: 2
Fore
SplineSet
26 78 m 1
 38 78 l 1
 38 48 l 1
 64 48 l 1
 64 44 l 1
 38 44 l 1
 38 14 l 1
 26 14 l 1
 26 44 l 1
 0 44 l 1
 0 48 l 1
 26 48 l 1
 26 78 l 1
EndSplineSet
EndChar

StartChar: C
Encoding: 67 67 42
Width: 76
VWidth: 0
Flags: HW
HStem: -1 4<20.9855 43.0145> 65 4<20.9855 43.0145>
VStem: 0 12<9.32178 58.6782> 52 12<9.32178 17 51 58.6782>
LayerCount: 2
Fore
SplineSet
64 17 m 0
 64 3 46 -1 32 -1 c 0
 18 -1 0 3 0 17 c 0
 0 31 0 61 0 75 c 4
 0 89 18 93 32 93 c 4
 46 93 64 89 64 75 c 4
 52 75 l 4
 52 85 42 89 32 89 c 4
 22 89 12 85 12 75 c 4
 12 61 12 31 12 17 c 0
 12 7 22 3 32 3 c 0
 42 3 52 7 52 17 c 0
 64 17 l 0
EndSplineSet
EndChar

StartChar: three
Encoding: 51 51 43
Width: 76
VWidth: 0
Flags: HW
HStem: -1 4<20.9855 43.0145> 65 4<20.9855 43.0145>
VStem: 0 12<9.32178 58.6782> 52 12<9.32178 17 51 58.6782>
LayerCount: 2
Fore
SplineSet
48 48 m 1
 57 50 64 55 64 64 c 2
 64 75 l 2
 64 89 46 93 32 93 c 0
 18 93 0 89 0 75 c 1
 12 75 l 1
 12 85 22 89 32 89 c 0
 42 89 52 85 52 75 c 2
 52 64 l 2
 52 54 42 50 32 50 c 1
 32 46 l 1
 42 46 52 42 52 32 c 2
 52 17 l 2
 52 7 42 3 32 3 c 0
 22 3 12 7 12 17 c 1
 0 17 l 1
 0 3 18 -1 32 -1 c 0
 46 -1 64 3 64 17 c 2
 64 32 l 2
 64 41 57 46 48 48 c 1
EndSplineSet
EndChar

StartChar: six
Encoding: 54 54 44
Width: 76
VWidth: 0
Flags: HW
HStem: -1 4<20.9855 43.0145> 65 4<20.9855 43.0145>
VStem: 0 12<9.32178 58.6782> 52 12<9.32178 58.6782>
LayerCount: 2
Fore
SplineSet
32 54 m 0
 46 54 64 50 64 36 c 0
 64 22 64 31 64 17 c 0
 64 3 46 -1 32 -1 c 0
 18 -1 0 3 0 17 c 0
 0 31 0 22 0 36 c 2
 0 75 l 2
 0 89 18 93 32 93 c 0
 46 93 64 89 64 75 c 1
 52 75 l 1
 52 85 42 89 32 89 c 0
 22 89 12 85 12 75 c 2
 12 51 l 1
 18 53 25 54 32 54 c 0
52 17 m 0
 52 31 52 22 52 36 c 0
 52 46 42 50 32 50 c 0
 22 50 12 46 12 36 c 2
 12 17 l 2
 12 7 22 3 32 3 c 0
 42 3 52 7 52 17 c 0
EndSplineSet
EndChar

StartChar: H
Encoding: 72 72 45
Width: 128
VWidth: 0
Flags: H
LayerCount: 2
Fore
SplineSet
0 92 m 1
 12 92 l 1
 12 48 l 1
 52 48 l 1
 52 92 l 1
 64 92 l 1
 64 48 l 1
 64 44 l 1
 64 0 l 1
 52 0 l 1
 52 44 l 1
 12 44 l 1
 12 0 l 1
 0 0 l 1
 0 44 l 1
 0 48 l 1
 0 92 l 1
EndSplineSet
EndChar

StartChar: A
Encoding: 65 65 46
Width: 76
VWidth: 0
Flags: HW
HStem: 0 21G<22.5882 44.2353> 48 20G<0 20.2857 51.7857 64>
LayerCount: 2
Fore
SplineSet
64 0 m 1
 54 0 l 1
 44 27 l 1
 12 27 l 1
 4 0 l 1
 0 0 l 1
 28 92 l 1
 32 92 l 1
 64 0 l 1
43 31 m 1
 27 76 l 1
 13 31 l 1
 43 31 l 1
EndSplineSet
EndChar

StartChar: D
Encoding: 68 68 47
Width: 76
VWidth: 0
Flags: HW
HStem: -1 4<20.9855 43.0145> 65 4<20.9855 43.0145>
VStem: 0 12<9.32178 58.6782> 52 12<9.32178 58.6782>
LayerCount: 2
Fore
SplineSet
32 92 m 6
 46 92 64 88 64 74 c 6
 64 18 l 6
 64 4 46 0 32 0 c 6
 0 0 l 5
 0 92 l 5
 32 92 l 6
32 88 m 6
 12 88 l 5
 12 4 l 5
 32 4 l 6
 42 4 52 8 52 18 c 6
 52 74 l 6
 52 84 42 88 32 88 c 6
EndSplineSet
EndChar

StartChar: F
Encoding: 70 70 48
Width: 128
VWidth: 0
Flags: H
LayerCount: 2
Fore
SplineSet
12 88 m 1
 12 48 l 1
 56 48 l 1
 56 44 l 1
 12 44 l 1
 12 0 l 1
 0 0 l 1
 0 44 l 1
 0 48 l 1
 0 88 l 1
 0 92 l 1
 12 92 l 1
 64 92 l 1
 64 88 l 1
 12 88 l 1
EndSplineSet
EndChar

StartChar: E
Encoding: 69 69 49
Width: 128
VWidth: 0
Flags: HW
LayerCount: 2
Fore
SplineSet
12 88 m 1
 12 48 l 1
 56 48 l 5
 56 44 l 5
 12 44 l 1
 12 4 l 1
 64 4 l 1
 64 0 l 1
 12 0 l 1
 0 0 l 1
 0 44 l 1
 0 48 l 1
 0 88 l 1
 0 92 l 1
 12 92 l 1
 64 92 l 1
 64 88 l 1
 12 88 l 1
EndSplineSet
EndChar

StartChar: eight
Encoding: 56 56 50
Width: 76
VWidth: 0
Flags: HW
HStem: -1 4<20.9855 43.0145> 65 4<20.9855 43.0145>
VStem: 0 12<9.32178 58.6782> 52 12<9.32178 58.6782>
LayerCount: 2
Fore
SplineSet
32 93 m 4
 46 93 64 89 64 75 c 4
 64 61 64 78 64 64 c 4
 64 50 46 46 32 46 c 4
 18 46 0 50 0 64 c 4
 0 78 0 61 0 75 c 4
 0 89 18 93 32 93 c 4
32 89 m 4
 22 89 12 85 12 75 c 4
 12 61 12 78 12 64 c 4
 12 54 22 50 32 50 c 4
 42 50 52 54 52 64 c 4
 52 78 52 61 52 75 c 4
 52 85 42 89 32 89 c 4
32 50 m 0
 46 50 64 46 64 32 c 0
 64 18 64 31 64 17 c 0
 64 3 46 -1 32 -1 c 0
 18 -1 0 3 0 17 c 0
 0 31 0 18 0 32 c 0
 0 46 18 50 32 50 c 0
32 46 m 0
 22 46 12 42 12 32 c 0
 12 18 12 31 12 17 c 0
 12 7 22 3 32 3 c 0
 42 3 52 7 52 17 c 0
 52 31 52 18 52 32 c 0
 52 42 42 46 32 46 c 0
EndSplineSet
EndChar

StartChar: nine
Encoding: 57 57 51
Width: 76
VWidth: 0
Flags: HW
HStem: -1 4<20.9855 43.0145> 65 4<20.9855 43.0145>
VStem: 0 12<9.32178 58.6782> 52 12<9.32178 58.6782>
LayerCount: 2
Fore
SplineSet
32 40 m 4
 18 40 0 44 0 58 c 4
 0 72 0 61 0 75 c 0
 0 89 18 93 32 93 c 0
 46 93 64 89 64 75 c 0
 64 61 64 70 64 56 c 2
 64 17 l 2
 64 3 46 -1 32 -1 c 0
 18 -1 0 3 0 17 c 1
 12 17 l 1
 12 7 22 3 32 3 c 0
 42 3 52 7 52 17 c 2
 52 43 l 5
 46 41 39 40 32 40 c 4
12 75 m 0
 12 61 12 72 12 58 c 4
 12 48 22 44 32 44 c 4
 42 44 52 48 52 58 c 6
 52 75 l 2
 52 85 42 89 32 89 c 0
 22 89 12 85 12 75 c 0
EndSplineSet
EndChar

StartChar: P
Encoding: 80 80 52
Width: 76
VWidth: 0
Flags: HW
HStem: -1 4<20.9855 43.0145> 65 4<20.9855 43.0145>
VStem: 0 12<9.32178 58.6782> 52 12<9.32178 58.6782>
LayerCount: 2
Fore
SplineSet
32 88 m 2
 12 88 l 1
 12 46 l 5
 32 46 l 6
 42 46 52 50 52 60 c 6
 52 74 l 2
 52 84 42 88 32 88 c 2
32 92 m 2
 46 92 64 88 64 74 c 2
 64 60 l 6
 64 46 46 42 32 42 c 6
 12 42 l 5
 12 0 l 1
 0 0 l 1
 0 44 l 1
 0 92 l 1
 32 92 l 2
EndSplineSet
EndChar

StartChar: B
Encoding: 66 66 53
Width: 76
VWidth: 0
Flags: HW
HStem: -1 4<20.9855 43.0145> 65 4<20.9855 43.0145>
VStem: 0 12<9.32178 58.6782> 52 12<9.32178 58.6782>
LayerCount: 2
Fore
SplineSet
32 88 m 2
 12 88 l 1
 12 50 l 1
 32 50 l 2
 42 50 52 54 52 64 c 2
 52 74 l 2
 52 84 42 88 32 88 c 2
32 92 m 2
 46 92 64 88 64 74 c 2
 64 64 l 2
 64 55 57 50 48 48 c 1
 57 46 64 41 64 32 c 2
 64 18 l 2
 64 4 46 0 32 0 c 2
 0 0 l 1
 0 44 l 1
 0 48 l 1
 0 92 l 1
 32 92 l 2
32 46 m 2
 12 46 l 1
 12 4 l 1
 32 4 l 2
 42 4 52 8 52 18 c 2
 52 32 l 2
 52 42 42 46 32 46 c 2
EndSplineSet
EndChar

StartChar: at
Encoding: 64 64 54
Width: 76
VWidth: 0
Flags: HW
HStem: -1 4<20.9855 43.0145> 65 4<20.9855 43.0145>
VStem: 0 12<9.32178 58.6782> 52 12<9.32178 58.6782>
LayerCount: 2
Fore
SplineSet
32 92 m 2
 46 92 64 88 64 74 c 2
 64 62 l 6
 64 48 46 44 32 44 c 6
 0 44 l 5
 0 92 l 1
 32 92 l 2
32 88 m 2
 12 88 l 1
 12 48 l 5
 32 48 l 6
 42 48 52 52 52 62 c 6
 52 74 l 2
 52 84 42 88 32 88 c 2
EndSplineSet
EndChar

StartChar: Z
Encoding: 90 90 55
Width: 128
VWidth: 0
Flags: HW
HStem: 0 4<15.0588 64> 64 4<0 48.9412>
LayerCount: 2
Fore
SplineSet
49 88 m 1
 0 88 l 1
 0 92 l 1
 52 92 l 1
 54 92 l 1
 64 92 l 1
 15 4 l 1
 64 4 l 1
 64 0 l 1
 12 0 l 1
 10 0 l 1
 0 0 l 1
 49 88 l 1
EndSplineSet
EndChar

StartChar: quotesingle
Encoding: 39 39 56
Width: 128
VWidth: 0
Flags: H
LayerCount: 2
Fore
SplineSet
26 92 m 5
 38 92 l 5
 38 68 l 5
 26 68 l 5
 26 92 l 5
EndSplineSet
EndChar

StartChar: quotedbl
Encoding: 34 34 57
Width: 128
VWidth: 0
Flags: H
LayerCount: 2
Fore
SplineSet
38 92 m 5
 50 92 l 5
 50 68 l 5
 38 68 l 5
 38 92 l 5
26 92 m 1
 26 68 l 1
 14 68 l 1
 14 92 l 1
 26 92 l 1
EndSplineSet
EndChar

StartChar: period
Encoding: 46 46 58
Width: 76
VWidth: 0
Flags: HW
LayerCount: 2
Fore
SplineSet
26 6 m 4
 26 10 28 12 32 12 c 4
 36 12 38 10 38 6 c 4
 38 2 36 0 32 0 c 4
 28 0 26 2 26 6 c 4
EndSplineSet
EndChar

StartChar: exclam
Encoding: 33 33 59
Width: 76
VWidth: 0
Flags: HW
LayerCount: 2
Fore
SplineSet
26 92 m 1
 38 92 l 1
 38 20 l 5
 26 20 l 5
 26 92 l 1
26 6 m 0
 26 10 28 12 32 12 c 0
 36 12 38 10 38 6 c 0
 38 2 36 0 32 0 c 0
 28 0 26 2 26 6 c 0
EndSplineSet
EndChar

StartChar: slash
Encoding: 47 47 61
Width: 128
VWidth: 0
Flags: H
LayerCount: 2
Fore
SplineSet
64 92 m 1
 11 0 l 5
 0 0 l 5
 53 92 l 1
 64 92 l 1
EndSplineSet
EndChar

StartChar: k
Encoding: 107 107 63
Width: 128
VWidth: 0
Flags: HO
LayerCount: 2
Fore
SplineSet
12 42 m 3
 12 62 12 92 12 92 c 1
 0 92 l 1
 0 0 l 1
 12 0 l 1
 12 33.9230769231 l 1
 54 0 l 1
 64 0 l 1
 17 37 l 1
 64 68 l 1
 57 68 l 1
 19 42.326171875 l 0
 17.869140625 41.5419921875 12 40 12 42 c 3
EndSplineSet
EndChar

StartChar: bar
Encoding: 124 124 64
Width: 128
VWidth: 0
Flags: H
LayerCount: 2
Fore
SplineSet
26 92 m 5
 38 92 l 5
 38 0 l 5
 26 0 l 5
 26 92 l 5
EndSplineSet
EndChar

StartChar: G
Encoding: 71 71 65
Width: 76
VWidth: 0
Flags: HW
HStem: -1 4<20.9855 43.0145> 65 4<20.9855 43.0145>
VStem: 0 12<9.32178 58.6782> 52 12<9.32178 17 51 58.6782>
LayerCount: 2
Fore
SplineSet
64 17 m 2
 64 3 46 -1 32 -1 c 0
 18 -1 0 3 0 17 c 0
 0 31 0 61 0 75 c 0
 0 89 18 93 32 93 c 0
 46 93 64 89 64 75 c 1
 52 75 l 1
 52 85 42 89 32 89 c 0
 22 89 12 85 12 75 c 0
 12 61 12 31 12 17 c 0
 12 7 22 3 32 3 c 0
 42 3 52 7 52 17 c 2
 52 42 l 1
 26 42 l 1
 26 46 l 1
 52 46 l 1
 64 46 l 1
 64 17 l 2
EndSplineSet
EndChar

StartChar: R
Encoding: 82 82 66
Width: 76
VWidth: 0
Flags: HW
HStem: -1 4<20.9855 43.0145> 65 4<20.9855 43.0145>
VStem: 0 12<9.32178 58.6782> 52 12<9.32178 58.6782>
LayerCount: 2
Fore
SplineSet
32 92 m 2
 46 92 64 88 64 74 c 2
 64 60 l 2
 64 47 49 43 36 42 c 1
 68 0 l 5
 57 0 l 5
 25 42 l 1
 12 42 l 1
 12 0 l 1
 0 0 l 1
 0 44 l 1
 0 92 l 1
 32 92 l 2
32 88 m 2
 12 88 l 1
 12 46 l 1
 32 46 l 2
 42 46 52 50 52 60 c 2
 52 74 l 2
 52 84 42 88 32 88 c 2
EndSplineSet
EndChar
